<?xml version="1.0" encoding="UTF-8"?>
<svg version="1.1" xmlns="http://www.w3.org/2000/svg" width="256" height="257">
<path d="M0 0 C84.48 0 168.96 0 256 0 C256 84.81 256 169.62 256 257 C171.52 257 87.04 257 0 257 C0 172.19 0 87.38 0 0 Z " fill="#FEFEFE" transform="translate(0,0)"/>
<path d="M0 0 C1.81519559 -0.00126562 1.81519559 -0.00126562 3.66706181 -0.0025568 C7.57136732 0.00265433 11.47331219 0.05588913 15.37719727 0.11108398 C17.79259109 0.12138039 20.20800051 0.12851892 22.62341309 0.13244629 C31.56371528 0.16909557 40.50368277 0.26682474 49.44360352 0.35717773 C69.42922852 0.50155273 89.41485352 0.64592773 110.00610352 0.79467773 C110.00610352 43.36467773 110.00610352 85.93467773 110.00610352 129.79467773 C25.52610352 129.79467773 -58.95389648 129.79467773 -145.99389648 129.79467773 C-145.99389648 126.49467773 -145.99389648 123.19467773 -145.99389648 119.79467773 C-145.15858398 120.93936523 -145.15858398 120.93936523 -144.30639648 122.10717773 C-141.39511131 125.49056321 -139.23606978 127.52396553 -134.6565609 128.0768795 C-131.63232212 128.20532095 -128.62123878 128.23105297 -125.59423828 128.22705078 C-123.86676109 128.24233826 -123.86676109 128.24233826 -122.10438538 128.25793457 C-118.30057947 128.28811095 -114.49702521 128.29733793 -110.69311523 128.30639648 C-108.0546637 128.32323966 -105.4162202 128.34138941 -102.77778625 128.36079407 C-96.54476922 128.40443269 -90.31177829 128.43299575 -84.07865506 128.45611745 C-76.98065241 128.48318335 -69.88278506 128.52709394 -62.78487909 128.57240617 C-48.18796423 128.66521454 -33.59099155 128.73691269 -18.99389648 128.79467773 C-19.00034904 128.17752868 -19.00680159 127.56037962 -19.01344967 126.92452908 C-19.16819007 111.89248164 -19.2839482 96.86067932 -19.35658169 81.82804012 C-19.39264259 74.5582458 -19.44178571 67.28898382 -19.52197266 60.01953125 C-19.59184887 53.68177873 -19.63692867 47.34441181 -19.65251595 41.00628477 C-19.66162482 37.65153572 -19.68295525 34.29788953 -19.73400688 30.9434948 C-19.78483295 27.19392408 -19.79181926 23.44663716 -19.78857422 19.69677734 C-19.82632462 18.0373687 -19.82632462 18.0373687 -19.86483765 16.34443665 C-19.81734336 11.27186754 -19.51560817 7.58835807 -16.19384766 3.60046387 C-11.3133418 -0.47085641 -6.09551662 -0.13735256 0 0 Z " fill="#FDFDFD" transform="translate(145.993896484375,127.205322265625)"/>
<path d="M0 0 C1.72769623 -0.00131424 1.72769623 -0.00131424 3.49029541 -0.00265503 C7.28930983 0.00151801 11.08654873 0.04816218 14.88525391 0.09521484 C17.52225785 0.10640785 20.15927428 0.11494754 22.79629517 0.12094116 C29.02252716 0.13956041 35.24812405 0.1887565 41.47407687 0.2490381 C48.56468037 0.31619536 55.65531484 0.34911517 62.74615741 0.37921071 C77.3267041 0.44185908 91.90675136 0.54733635 106.48681641 0.68115234 C104.91425233 4.47094829 102.54440349 6.87257101 99.65940857 9.75579834 C99.16429545 10.25332587 98.66918233 10.75085341 98.15906578 11.26345754 C96.50016979 12.92798568 94.83422672 14.58527413 93.16821289 16.24267578 C91.9770148 17.43494684 90.78624979 18.62765075 89.59588623 19.820755 C86.36300732 23.05848172 83.12391226 26.28992334 79.88353992 29.52014828 C76.49745252 32.8974585 73.11663181 36.28003324 69.73512268 39.66192627 C64.0581832 45.33792925 58.37738337 51.01004515 52.6940918 56.6796875 C46.11397282 63.2440622 39.53911402 69.81366783 32.96722931 76.38628554 C26.65320053 82.70092356 20.3363246 89.01270486 14.01783943 95.32288361 C11.32447927 98.01270419 8.63197828 100.70338055 5.9401226 103.39470673 C2.77507422 106.55875435 -0.39249871 109.72025266 -3.56208801 112.87975121 C-4.72841895 114.04314907 -5.89389262 115.20740707 -7.05846977 116.3725605 C-8.64093471 117.95551235 -10.226415 119.53537831 -11.8127594 121.11444092 C-12.70153558 122.00154125 -13.59031176 122.88864159 -14.50602055 123.80262375 C-16.51318359 125.68115234 -16.51318359 125.68115234 -17.51318359 125.68115234 C-17.65343472 110.26925012 -17.7591941 94.85739573 -17.82405663 79.44500542 C-17.85497608 72.28847782 -17.89711892 65.13234707 -17.96582031 57.97607422 C-18.02568224 51.73758174 -18.06434667 45.49937669 -18.07771456 39.26060498 C-18.0855274 35.9579429 -18.10700615 32.6562933 -18.14756393 29.3538475 C-18.19107867 25.664112 -18.19711927 21.97608334 -18.19433594 18.28613281 C-18.21590759 17.19496658 -18.23747925 16.10380035 -18.25970459 14.97956848 C-18.2222117 10.39053472 -18.16623329 6.66536452 -15.19018555 2.99841309 C-10.72760109 -0.61690595 -5.48039661 -0.1092804 0 0 Z " fill="#1A1A1A" transform="translate(146.51318359375,128.31884765625)"/>
<path d="M0 0 C1.19095779 -0.00102219 2.38191559 -0.00204437 3.60896301 -0.00309753 C6.8572342 0.0009293 10.10336376 0.0359014 13.35121036 0.08492017 C16.75170917 0.12883458 20.15225515 0.13280335 23.55299377 0.14109802 C29.9847024 0.16280998 36.41557296 0.22019029 42.8469134 0.29054445 C50.17208965 0.36892807 57.49730703 0.40730929 64.82279861 0.4424125 C79.8843663 0.51547841 94.94515089 0.6385133 110.00610352 0.79467773 C110.00610352 1.45467773 110.00610352 2.11467773 110.00610352 2.79467773 C109.34610352 2.79467773 108.68610352 2.79467773 108.00610352 2.79467773 C107.66065963 3.62768087 107.66065963 3.62768087 107.30823708 4.47751236 C105.64670627 7.43423029 103.57436375 9.47190044 101.17196655 11.86932373 C100.67614787 12.36685127 100.18032918 12.8643788 99.66948569 13.37698293 C98.00824942 15.04151126 96.33997 16.69879432 94.67163086 18.35620117 C93.47880322 19.54846463 92.28641587 20.74116873 91.09443665 21.9342804 C87.85738617 25.17190514 84.61420234 28.40332255 81.36989546 31.63367367 C77.9803821 35.0106921 74.59652439 38.39336785 71.21206665 41.77545166 C64.80230069 48.17899922 58.38745311 54.57743107 51.97077143 60.9740479 C44.66583599 68.25663558 37.36657269 75.54489703 30.06778407 82.83364439 C15.05353382 97.82698448 0.0321625 112.81317279 -14.99389648 127.79467773 C0.33954198 127.86472153 15.67297308 127.91764317 31.00653553 127.95011425 C38.12599341 127.96559108 45.24535196 127.98669606 52.36474609 128.02099609 C59.23117201 128.05406164 66.09749449 128.07151496 72.96399498 128.07930946 C75.5879447 128.08486647 78.21188855 128.09571742 80.83579445 128.1118679 C84.50182082 128.13354194 88.1674163 128.13664881 91.83349609 128.13525391 C93.47239807 128.15143265 93.47239807 128.15143265 95.14440918 128.16793823 C96.63990044 128.16175224 96.63990044 128.16175224 98.16560364 128.15544128 C99.03301084 128.15820666 99.90041803 128.16097204 100.7941103 128.16382122 C103.50910278 127.71073584 104.34231782 126.94742984 106.00610352 124.79467773 C107.19638335 122.19552236 107.19638335 122.19552236 108.00610352 119.79467773 C108.66610352 119.79467773 109.32610352 119.79467773 110.00610352 119.79467773 C110.00610352 123.09467773 110.00610352 126.39467773 110.00610352 129.79467773 C25.52610352 129.79467773 -58.95389648 129.79467773 -145.99389648 129.79467773 C-145.99389648 126.49467773 -145.99389648 123.19467773 -145.99389648 119.79467773 C-145.15858398 120.93936523 -145.15858398 120.93936523 -144.30639648 122.10717773 C-141.39511131 125.49056321 -139.23606978 127.52396553 -134.6565609 128.0768795 C-131.63232212 128.20532095 -128.62123878 128.23105297 -125.59423828 128.22705078 C-123.86676109 128.24233826 -123.86676109 128.24233826 -122.10438538 128.25793457 C-118.30057947 128.28811095 -114.49702521 128.29733793 -110.69311523 128.30639648 C-108.0546637 128.32323966 -105.4162202 128.34138941 -102.77778625 128.36079407 C-96.54476922 128.40443269 -90.31177829 128.43299575 -84.07865506 128.45611745 C-76.98065241 128.48318335 -69.88278506 128.52709394 -62.78487909 128.57240617 C-48.18796423 128.66521454 -33.59099155 128.73691269 -18.99389648 128.79467773 C-19.00034904 128.17752868 -19.00680159 127.56037962 -19.01344967 126.92452908 C-19.16819007 111.89248164 -19.2839482 96.86067932 -19.35658169 81.82804012 C-19.39264259 74.5582458 -19.44178571 67.28898382 -19.52197266 60.01953125 C-19.59184887 53.68177873 -19.63692867 47.34441181 -19.65251595 41.00628477 C-19.66162482 37.65153572 -19.68295525 34.29788953 -19.73400688 30.9434948 C-19.78483295 27.19392408 -19.79181926 23.44663716 -19.78857422 19.69677734 C-19.82632462 18.0373687 -19.82632462 18.0373687 -19.86483765 16.34443665 C-19.81734336 11.27186754 -19.51560817 7.58835807 -16.19384766 3.60046387 C-11.31341158 -0.4707982 -6.09560725 -0.13750855 0 0 Z M-16.01711464 5.7706852 C-18.10688659 10.1009078 -17.76819731 14.6878974 -17.67504883 19.3996582 C-17.67592499 20.56120926 -17.67680115 21.72276031 -17.67770386 22.91950989 C-17.67353057 26.75098391 -17.62688507 30.58069781 -17.57983398 34.41186523 C-17.5686409 37.07132939 -17.55980615 39.73069662 -17.55410767 42.39016724 C-17.53548783 48.66952058 -17.4862909 54.94824424 -17.42601073 61.22732079 C-17.35885535 68.37838341 -17.32593412 75.52947671 -17.29583812 82.68077636 C-17.23318841 97.38573162 -17.12770998 112.09019368 -16.99389648 126.79467773 C-10.42850257 121.38905749 -4.46451497 115.41368853 1.54101562 109.4050293 C2.69454497 108.2544962 3.84827773 107.10416703 5.00219727 105.95402527 C8.11774633 102.84726512 11.23008745 99.73731081 14.34156489 96.62647343 C16.2856637 94.68308711 18.23047348 92.74041524 20.17553902 90.79799652 C26.96020869 84.02255767 33.74231116 77.2445614 40.52197266 70.46411133 C46.84603837 64.13944283 53.17568263 57.82039525 59.50791925 51.5039084 C64.94681754 46.07805771 70.38188203 40.64838715 75.81394011 35.21568847 C79.05768939 31.97168372 82.30298691 28.72926503 85.55213737 25.49066925 C88.60090385 22.45153894 91.64489257 19.40770528 94.68518829 16.3601017 C95.80416991 15.24006919 96.92487803 14.12175863 98.04738808 13.00526237 C99.5733789 11.48692236 101.09314895 9.96262318 102.61143494 8.43658447 C103.46514144 7.58342274 104.31884794 6.730261 105.19842434 5.85124588 C107.22616865 4.00066264 107.22616865 4.00066264 107.00610352 1.79467773 C91.72459488 1.65442388 76.44311597 1.54866586 61.16110802 1.4838047 C54.06511272 1.45288583 46.96951767 1.41074415 39.8737793 1.34204102 C33.0267622 1.27577776 26.18016132 1.24097739 19.33284378 1.22541428 C16.71969683 1.21432253 14.1065728 1.19266295 11.49360275 1.16029739 C7.83499609 1.11677977 4.17811068 1.11074216 0.51928711 1.11352539 C-0.56252838 1.09195374 -1.64434387 1.07038208 -2.75894165 1.04815674 C-8.23251424 1.09325226 -12.40395593 1.31871445 -16.01711464 5.7706852 Z " fill="#9E9E9E" transform="translate(145.993896484375,127.205322265625)"/>
<path d="M0 0 C84.48 0 168.96 0 256 0 C256 2.97 256 5.94 256 9 C255.01 9 254.02 9 253 9 C251.23537317 5.91190305 251 4.76687864 251 1 C219.71206133 1.05906999 188.42420408 1.13336031 157.1363575 1.22898628 C153.44499062 1.24025484 149.75362337 1.25139323 146.06225586 1.26245117 C144.95989941 1.2657567 144.95989941 1.2657567 143.83527312 1.269129 C131.92596912 1.30452959 120.01666518 1.32937811 108.10732802 1.35034702 C95.89296728 1.37208712 83.67867499 1.40512039 71.46437246 1.44870156 C63.92365832 1.47524928 56.38302952 1.49292162 48.84227095 1.49934604 C43.06613715 1.50520918 37.29014544 1.52676226 31.51407814 1.55427551 C29.14005506 1.56310104 26.7660066 1.56676906 24.39196777 1.56500816 C21.16104215 1.56336771 17.93071831 1.57994949 14.69987488 1.60127258 C13.75144012 1.59642501 12.80300537 1.59157743 11.82583016 1.58658296 C10.9629417 1.5960395 10.10005325 1.60549604 9.21101665 1.61523914 C8.46486621 1.61713775 7.71871576 1.61903635 6.94995469 1.62099248 C4.48090372 2.10089537 3.67324581 3.18651015 2 5 C1.34 5 0.68 5 0 5 C0 3.35 0 1.7 0 0 Z " fill="#F0F0F0" transform="translate(0,0)"/>
<path d="M0 0 C0.66 0 1.32 0 2 0 C2 3.3 2 6.6 2 10 C-39.58 10 -81.16 10 -124 10 C-124 9.67 -124 9.34 -124 9 C-123.38947124 8.99761165 -122.77894247 8.99522329 -122.14991283 8.99276257 C-107.30263586 8.9336575 -92.45551082 8.85813643 -77.60841656 8.76428509 C-70.42849379 8.71929638 -63.24862097 8.67988894 -56.06860352 8.65356445 C-49.81137052 8.63060912 -43.55429517 8.59723903 -37.29718715 8.55129844 C-33.98325737 8.5273325 -30.66951808 8.51017918 -27.35550499 8.50238609 C-23.65823312 8.49280845 -19.96153603 8.46482456 -16.2644043 8.43237305 C-15.16245224 8.43380814 -14.06050018 8.43524323 -12.92515564 8.4367218 C-11.91974731 8.42418365 -10.91433899 8.41164551 -9.87846375 8.39872742 C-9.0036822 8.39411845 -8.12890066 8.38950949 -7.22761059 8.38476086 C-4.50942385 7.91526594 -3.66722007 7.15811172 -2 5 C-0.80972016 2.40084462 -0.80972016 2.40084462 0 0 Z " fill="#A9A9A9" transform="translate(254,247)"/>
<path d="M0 0 C0.8353125 1.1446875 0.8353125 1.1446875 1.6875 2.3125 C4.59878518 5.69588548 6.75782671 7.7292878 11.33733559 8.28220177 C14.36157436 8.41064322 17.37265771 8.43637523 20.3996582 8.43237305 C22.12713539 8.44766052 22.12713539 8.44766052 23.88951111 8.46325684 C27.69331702 8.49343321 31.49687127 8.50266019 35.30078125 8.51171875 C37.93923279 8.52856193 40.57767629 8.54671167 43.21611023 8.56611633 C49.44912727 8.60975495 55.68211819 8.63831802 61.91524142 8.66143972 C69.01324408 8.68850561 76.11111142 8.7324162 83.2090174 8.77772844 C97.80593225 8.87053681 112.40290493 8.94223496 127 9 C127 9.33 127 9.66 127 10 C85.09 10 43.18 10 0 10 C0 6.7 0 3.4 0 0 Z " fill="#A9A9A9" transform="translate(0,247)"/>
<path d="M0 0 C0.66 0 1.32 0 2 0 C2 3.3 2 6.6 2 10 C-0.31 10 -2.62 10 -5 10 C-4.625 8.0625 -4.625 8.0625 -4 6 C-3.34 5.67 -2.68 5.34 -2 5 C-1.27840576 3.35636866 -0.60648579 1.68949614 0 0 Z " fill="#D5D5D5" transform="translate(254,247)"/>
<path d="M0 0 C0.8353125 1.1446875 0.8353125 1.1446875 1.6875 2.3125 C3.96679369 4.96140888 5.93599872 6.38288822 9 8 C7 10 7 10 3.375 10.125 C2.26125 10.08375 1.1475 10.0425 0 10 C0 6.7 0 3.4 0 0 Z " fill="#DDDDDD" transform="translate(0,247)"/>
<path d="M0 0 C1.65 0 3.3 0 5 0 C5 2.97 5 5.94 5 9 C4.01 9 3.02 9 2 9 C0.14223235 5.86501708 -0.20140476 3.62528568 0 0 Z " fill="#E2E2E2" transform="translate(251,0)"/>
<path d="M0 0 C0.66 0 1.32 0 2 0 C2 1.65 2 3.3 2 5 C0.35 5 -1.3 5 -3 5 C-1.125 1.125 -1.125 1.125 0 0 Z " fill="#3F5F43" transform="translate(254,252)"/>
<path d="M0 0 C1.9375 0.8125 1.9375 0.8125 4 2 C4.33 2.99 4.66 3.98 5 5 C3.35 5 1.7 5 0 5 C0 3.35 0 1.7 0 0 Z " fill="#436747" transform="translate(0,252)"/>
<path d="M0 0 C1.65 0 3.3 0 5 0 C5 1.65 5 3.3 5 5 C3.0625 4.1875 3.0625 4.1875 1 3 C0.67 2.01 0.34 1.02 0 0 Z " fill="#436847" transform="translate(251,0)"/>
<path d="M0 0 C1.65 0 3.3 0 5 0 C5 2 5 2 3.625 3.625 C2 5 2 5 0 5 C0 3.35 0 1.7 0 0 Z " fill="#47704C" transform="translate(0,0)"/>
</svg>
